<svg width="153" height="165" viewBox="0 0 153 165" fill="none" xmlns="http://www.w3.org/2000/svg">
<rect x="0.197998" y="0.906128" width="239.642" height="163.756" rx="11.9821" fill="white"/>
<rect x="27.5444" y="39.6483" width="26.3607" height="20.769" fill="white"/>
<rect x="53.905" y="39.6483" width="26.3607" height="20.769" fill="white"/>
<path d="M67.0538 51.0536H66.6185V48.1681L65.7456 48.4887V48.0956L66.9859 47.6299H67.0538V51.0536Z" fill="#172755"/>
<rect x="80.2656" y="39.6483" width="26.3607" height="20.769" fill="white"/>
<path d="M94.2241 51.0536H91.9915V50.7424L93.171 49.4319C93.3457 49.2337 93.4658 49.073 93.5314 48.9498C93.5985 48.8249 93.632 48.6962 93.632 48.5636C93.632 48.3858 93.5782 48.2399 93.4705 48.126C93.3629 48.0121 93.2193 47.9551 93.0399 47.9551C92.8246 47.9551 92.6569 48.0168 92.5368 48.14C92.4182 48.2617 92.3589 48.4318 92.3589 48.6502H91.926C91.926 48.3366 92.0266 48.0831 92.2278 47.8896C92.4307 47.6962 92.7014 47.5994 93.0399 47.5994C93.3566 47.5994 93.607 47.6829 93.7911 47.8498C93.9752 48.0152 94.0673 48.236 94.0673 48.5121C94.0673 48.8476 93.8535 49.247 93.4261 49.7103L92.5134 50.7003H94.2241V51.0536Z" fill="#172755"/>
<rect x="106.626" y="39.6483" width="26.3607" height="20.769" fill="white"/>
<path d="M118.982 49.1393H119.307C119.512 49.1362 119.672 49.0824 119.789 48.9778C119.906 48.8733 119.965 48.7321 119.965 48.5543C119.965 48.1549 119.766 47.9551 119.368 47.9551C119.181 47.9551 119.031 48.009 118.919 48.1166C118.808 48.2227 118.753 48.3639 118.753 48.5402H118.32C118.32 48.2703 118.418 48.0464 118.614 47.8686C118.813 47.6891 119.064 47.5994 119.368 47.5994C119.689 47.5994 119.941 47.6845 120.124 47.8545C120.306 48.0246 120.398 48.2609 120.398 48.5636C120.398 48.7118 120.349 48.8554 120.253 48.9942C120.157 49.1331 120.027 49.2368 119.862 49.3055C120.049 49.3648 120.193 49.4631 120.295 49.6004C120.398 49.7376 120.449 49.9054 120.449 50.1035C120.449 50.4093 120.349 50.6519 120.15 50.8313C119.95 51.0107 119.69 51.1005 119.37 51.1005C119.05 51.1005 118.79 51.0139 118.589 50.8407C118.389 50.6675 118.289 50.4389 118.289 50.155H118.724C118.724 50.3344 118.783 50.4779 118.9 50.5856C119.017 50.6933 119.174 50.7471 119.37 50.7471C119.579 50.7471 119.739 50.6925 119.85 50.5833C119.961 50.474 120.016 50.3172 120.016 50.1129C120.016 49.9147 119.955 49.7626 119.834 49.6565C119.712 49.5504 119.536 49.4958 119.307 49.4927H118.982V49.1393Z" fill="#172755"/>
<rect x="132.987" y="39.6483" width="26.3607" height="20.769" fill="white"/>
<path d="M146.541 49.9093H147.013V50.2626H146.541V51.0536H146.105V50.2626H144.554V50.0076L146.08 47.6462H146.541V49.9093ZM145.045 49.9093H146.105V48.2383L146.054 48.3319L145.045 49.9093Z" fill="#172755"/>
<rect x="27.5444" y="60.4173" width="26.3607" height="20.769" fill="white"/>
<path d="M41.4701 68.6586L40.059 71.8226H39.6049L41.0114 68.7709H39.1673V68.4152H41.4701V68.6586Z" fill="#172755"/>
<rect x="53.905" y="60.4173" width="26.3607" height="20.769" fill="white"/>
<circle cx="66.8855" cy="70.6021" r="7.78838" fill="#0088F0"/>
<path d="M67.6973 69.3045C67.6973 69.4746 67.6521 69.6259 67.5616 69.7585C67.4727 69.8911 67.3518 69.9949 67.1989 70.0698C67.3767 70.1462 67.5171 70.2578 67.6201 70.4044C67.7246 70.5511 67.7769 70.7173 67.7769 70.9029C67.7769 71.1978 67.677 71.4326 67.4773 71.6073C67.2792 71.7821 67.0179 71.8694 66.6934 71.8694C66.3657 71.8694 66.1028 71.7821 65.9047 71.6073C65.7081 71.431 65.6098 71.1962 65.6098 70.9029C65.6098 70.7188 65.6597 70.5527 65.7596 70.4044C65.861 70.2562 66.0006 70.1439 66.1785 70.0674C66.0272 69.9926 65.9078 69.8888 65.8204 69.7562C65.7331 69.6236 65.6894 69.473 65.6894 69.3045C65.6894 69.0174 65.7814 68.7897 65.9655 68.6212C66.1496 68.4527 66.3922 68.3684 66.6934 68.3684C66.9929 68.3684 67.2347 68.4527 67.4188 68.6212C67.6045 68.7897 67.6973 69.0174 67.6973 69.3045ZM67.344 70.8935C67.344 70.7032 67.2831 70.548 67.1614 70.4278C67.0413 70.3077 66.8837 70.2476 66.6887 70.2476C66.4937 70.2476 66.3369 70.3069 66.2183 70.4255C66.1013 70.5441 66.0428 70.7001 66.0428 70.8935C66.0428 71.087 66.0997 71.2391 66.2136 71.3499C66.3291 71.4607 66.489 71.5161 66.6934 71.5161C66.8962 71.5161 67.0553 71.4607 67.1708 71.3499C67.2862 71.2376 67.344 71.0855 67.344 70.8935ZM66.6934 68.7241C66.5233 68.7241 66.3852 68.7772 66.2791 68.8833C66.1746 68.9878 66.1223 69.1306 66.1223 69.3115C66.1223 69.4847 66.1738 69.6251 66.2768 69.7328C66.3813 69.8389 66.5202 69.8919 66.6934 69.8919C66.8665 69.8919 67.0046 69.8389 67.1076 69.7328C67.2121 69.6251 67.2644 69.4847 67.2644 69.3115C67.2644 69.1384 67.2106 68.9972 67.1029 68.8879C66.9953 68.7787 66.8587 68.7241 66.6934 68.7241Z" fill="#EEEEF7"/>
<rect x="80.2656" y="60.4173" width="26.3607" height="20.769" fill="white"/>
<circle cx="93.2461" cy="70.6021" r="7.78838" fill="#0088F0"/>
<path d="M93.6507 70.3249C93.5602 70.4325 93.4518 70.5191 93.3254 70.5846C93.2006 70.6502 93.0633 70.6829 92.9135 70.6829C92.717 70.6829 92.5453 70.6346 92.3987 70.5378C92.2536 70.4411 92.1413 70.3054 92.0617 70.1306C91.9821 69.9543 91.9423 69.7601 91.9423 69.5479C91.9423 69.3201 91.9852 69.115 92.071 68.9324C92.1584 68.7499 92.2817 68.6102 92.4408 68.5135C92.5999 68.4168 92.7856 68.3684 92.9978 68.3684C93.3348 68.3684 93.6 68.4948 93.7935 68.7475C93.9885 68.9987 94.086 69.342 94.086 69.7772V69.9036C94.086 70.5667 93.955 71.0511 93.6928 71.3569C93.4307 71.6612 93.0352 71.8172 92.5063 71.825H92.4221V71.4599H92.5134C92.8706 71.4537 93.1452 71.3608 93.3371 71.1814C93.529 71.0004 93.6336 70.7149 93.6507 70.3249ZM92.9837 70.3249C93.1288 70.3249 93.2622 70.2804 93.3839 70.1915C93.5072 70.1025 93.5969 69.9926 93.6531 69.8615V69.6883C93.6531 69.4044 93.5914 69.1735 93.4682 68.9956C93.3449 68.8177 93.1889 68.7288 93.0001 68.7288C92.8098 68.7288 92.6569 68.8021 92.5414 68.9488C92.426 69.0939 92.3683 69.2858 92.3683 69.5245C92.3683 69.757 92.4236 69.9489 92.5344 70.1002C92.6468 70.25 92.7965 70.3249 92.9837 70.3249Z" fill="#EEEEF7"/>
<rect x="106.626" y="60.4173" width="26.3607" height="20.769" fill="white"/>
<circle cx="119.607" cy="70.6021" r="7.78838" fill="#0088F0"/>
<path d="M117.93 71.8226H117.494V68.9371L116.621 69.2577V68.8645L117.862 68.3988H117.93V71.8226ZM121.335 70.3693C121.335 70.8764 121.248 71.2532 121.075 71.4997C120.902 71.7462 120.631 71.8694 120.263 71.8694C119.899 71.8694 119.63 71.7493 119.455 71.509C119.281 71.2672 119.19 70.9068 119.184 70.4278V69.8498C119.184 69.349 119.271 68.9769 119.444 68.7335C119.617 68.4901 119.888 68.3684 120.258 68.3684C120.625 68.3684 120.895 68.4862 121.068 68.7218C121.241 68.9558 121.33 69.3178 121.335 69.8077V70.3693ZM120.902 69.7772C120.902 69.4106 120.85 69.1438 120.747 68.9769C120.644 68.8084 120.481 68.7241 120.258 68.7241C120.037 68.7241 119.875 68.8076 119.774 68.9745C119.672 69.1415 119.62 69.3981 119.617 69.7445V70.4372C119.617 70.8054 119.67 71.0776 119.776 71.2539C119.884 71.4287 120.046 71.5161 120.263 71.5161C120.477 71.5161 120.635 71.4334 120.738 71.268C120.842 71.1026 120.897 70.8421 120.902 70.4863V69.7772Z" fill="#EEEEF7"/>
<rect x="132.987" y="60.4173" width="26.3607" height="20.769" fill="white"/>
<path d="M144.29 71.8226H143.855V68.9371L142.982 69.2577V68.8645L144.222 68.3988H144.29V71.8226ZM146.981 71.8226H146.546V68.9371L145.673 69.2577V68.8645L146.914 68.3988H146.981V71.8226Z" fill="#172755"/>
<rect x="27.5444" y="81.1863" width="26.3607" height="20.769" fill="white"/>
<path d="M38.8475 92.5917H38.4122V89.7061L37.5393 90.0268V89.6336L38.7796 89.1679H38.8475V92.5917ZM41.9437 91.4473H42.4164V91.8007H41.9437V92.5917H41.5084V91.8007H39.9568V91.5456L41.4826 89.1843H41.9437V91.4473ZM40.4483 91.4473H41.5084V89.7763L41.4569 89.87L40.4483 91.4473Z" fill="#172755"/>
<rect x="53.905" y="81.1863" width="26.3607" height="20.769" fill="white"/>
<path d="M65.2081 92.5917H64.7728V89.7061L63.8999 90.0268V89.6336L65.1402 89.1679H65.2081V92.5917ZM66.6755 90.8833L66.8486 89.1843H68.5945V89.5844H67.2161L67.1131 90.5135C67.28 90.4152 67.4696 90.3661 67.6818 90.3661C67.9922 90.3661 68.2387 90.4691 68.4213 90.675C68.6038 90.8794 68.6951 91.1563 68.6951 91.5058C68.6951 91.8568 68.5999 92.1338 68.4096 92.3366C68.2208 92.5378 67.9564 92.6385 67.6162 92.6385C67.3151 92.6385 67.0694 92.555 66.8791 92.3881C66.6887 92.2211 66.5803 91.9902 66.5538 91.6954H66.9633C66.9898 91.8904 67.0593 92.0378 67.1716 92.1377C67.2839 92.236 67.4321 92.2851 67.6162 92.2851C67.8175 92.2851 67.9751 92.2165 68.089 92.0792C68.2044 91.9419 68.2621 91.7523 68.2621 91.5105C68.2621 91.2827 68.1997 91.1002 68.0749 90.9629C67.9517 90.824 67.7871 90.7546 67.5811 90.7546C67.3924 90.7546 67.2441 90.7959 67.1365 90.8786L67.0218 90.9722L66.6755 90.8833Z" fill="#172755"/>
<rect x="80.2656" y="81.1863" width="26.3607" height="20.769" fill="white"/>
<path d="M91.5687 92.5917H91.1334V89.7061L90.2605 90.0268V89.6336L91.5008 89.1679H91.5687V92.5917ZM94.5362 89.1819V89.5493H94.4566C94.1196 89.5556 93.8512 89.6554 93.6515 89.8489C93.4518 90.0424 93.3364 90.3146 93.3052 90.6656C93.4846 90.4597 93.7295 90.3567 94.04 90.3567C94.3365 90.3567 94.5728 90.4613 94.7491 90.6703C94.927 90.8794 95.0159 91.1493 95.0159 91.4801C95.0159 91.8311 94.92 92.1119 94.7281 92.3225C94.5377 92.5332 94.2818 92.6385 93.9604 92.6385C93.6344 92.6385 93.3699 92.5137 93.1671 92.264C92.9643 92.0129 92.8629 91.6899 92.8629 91.2952V91.129C92.8629 90.5018 92.9963 90.0229 93.2631 89.6921C93.5314 89.3598 93.93 89.1897 94.4589 89.1819H94.5362ZM93.9675 90.7171C93.8193 90.7171 93.6827 90.7616 93.5579 90.8505C93.4331 90.9395 93.3465 91.051 93.2982 91.1852V91.3443C93.2982 91.6251 93.3613 91.8514 93.4877 92.023C93.6141 92.1946 93.7717 92.2804 93.9604 92.2804C94.1555 92.2804 94.3084 92.2087 94.4191 92.0651C94.5315 91.9216 94.5876 91.7336 94.5876 91.5011C94.5876 91.2671 94.5307 91.0783 94.4168 90.9348C94.3045 90.7897 94.1547 90.7171 93.9675 90.7171Z" fill="#172755"/>
<rect x="106.626" y="81.1863" width="26.3607" height="20.769" fill="white"/>
<path d="M117.93 92.5917H117.494V89.7061L116.621 90.0268V89.6336L117.862 89.1679H117.93V92.5917ZM121.398 89.4276L119.987 92.5917H119.533L120.939 89.54H119.095V89.1843H121.398V89.4276Z" fill="#172755"/>
<rect x="132.987" y="81.1863" width="26.3607" height="20.769" fill="white"/>
<circle cx="145.968" cy="91.3711" r="7.78838" fill="#EF2A82"/>
<path d="M144.29 92.5917H143.855V89.7061L142.982 90.0268V89.6336L144.222 89.1679H144.29V92.5917ZM147.625 90.0736C147.625 90.2436 147.58 90.395 147.489 90.5276C147.4 90.6602 147.279 90.7639 147.127 90.8388C147.304 90.9153 147.445 91.0268 147.548 91.1735C147.652 91.3201 147.705 91.4863 147.705 91.672C147.705 91.9668 147.605 92.2016 147.405 92.3764C147.207 92.5511 146.946 92.6385 146.621 92.6385C146.293 92.6385 146.031 92.5511 145.832 92.3764C145.636 92.2001 145.537 91.9653 145.537 91.672C145.537 91.4879 145.587 91.3217 145.687 91.1735C145.789 91.0253 145.928 90.9129 146.106 90.8365C145.955 90.7616 145.835 90.6578 145.748 90.5252C145.661 90.3926 145.617 90.2421 145.617 90.0736C145.617 89.7865 145.709 89.5587 145.893 89.3902C146.077 89.2217 146.32 89.1375 146.621 89.1375C146.921 89.1375 147.162 89.2217 147.347 89.3902C147.532 89.5587 147.625 89.7865 147.625 90.0736ZM147.272 91.6626C147.272 91.4723 147.211 91.317 147.089 91.1969C146.969 91.0767 146.811 91.0167 146.616 91.0167C146.421 91.0167 146.265 91.076 146.146 91.1945C146.029 91.3131 145.97 91.4691 145.97 91.6626C145.97 91.8561 146.027 92.0082 146.141 92.1189C146.257 92.2297 146.417 92.2851 146.621 92.2851C146.824 92.2851 146.983 92.2297 147.098 92.1189C147.214 92.0066 147.272 91.8545 147.272 91.6626ZM146.621 89.4932C146.451 89.4932 146.313 89.5462 146.207 89.6523C146.102 89.7568 146.05 89.8996 146.05 90.0806C146.05 90.2538 146.102 90.3942 146.204 90.5018C146.309 90.6079 146.448 90.661 146.621 90.661C146.794 90.661 146.932 90.6079 147.035 90.5018C147.14 90.3942 147.192 90.2538 147.192 90.0806C147.192 89.9074 147.138 89.7662 147.031 89.657C146.923 89.5478 146.786 89.4932 146.621 89.4932Z" fill="#EEEEF7"/>
<rect x="27.5444" y="101.955" width="26.3607" height="20.769" fill="white"/>
<path d="M39.6572 113.361H37.4246V113.049L38.6041 111.739C38.7789 111.541 38.899 111.38 38.9645 111.257C39.0316 111.132 39.0652 111.003 39.0652 110.871C39.0652 110.693 39.0113 110.547 38.9037 110.433C38.796 110.319 38.6525 110.262 38.4731 110.262C38.2578 110.262 38.0901 110.324 37.9699 110.447C37.8513 110.569 37.7921 110.739 37.7921 110.957H37.3591C37.3591 110.644 37.4597 110.39 37.661 110.197C37.8638 110.003 38.1345 109.906 38.4731 109.906C38.7898 109.906 39.0402 109.99 39.2243 110.157C39.4084 110.322 39.5004 110.543 39.5004 110.819C39.5004 111.155 39.2867 111.554 38.8592 112.017L37.9465 113.007H39.6572V113.361ZM41.5388 113.361H41.1035V110.475L40.2306 110.796V110.403L41.4709 109.937H41.5388V113.361Z" fill="#172755"/>
<rect x="53.905" y="101.955" width="26.3607" height="20.769" fill="white"/>
<path d="M66.0178 113.361H63.7852V113.049L64.9647 111.739C65.1395 111.541 65.2596 111.38 65.3251 111.257C65.3922 111.132 65.4258 111.003 65.4258 110.871C65.4258 110.693 65.3719 110.547 65.2643 110.433C65.1566 110.319 65.0131 110.262 64.8337 110.262C64.6184 110.262 64.4506 110.324 64.3305 110.447C64.2119 110.569 64.1527 110.739 64.1527 110.957H63.7197C63.7197 110.644 63.8203 110.39 64.0216 110.197C64.2244 110.003 64.4951 109.906 64.8337 109.906C65.1504 109.906 65.4008 109.99 65.5849 110.157C65.769 110.322 65.861 110.543 65.861 110.819C65.861 111.155 65.6473 111.554 65.2198 112.017L64.3071 113.007H66.0178V113.361ZM68.7091 113.361H66.4765V113.049L67.656 111.739C67.8308 111.541 67.9509 111.38 68.0164 111.257C68.0835 111.132 68.1171 111.003 68.1171 110.871C68.1171 110.693 68.0632 110.547 67.9556 110.433C67.8479 110.319 67.7044 110.262 67.525 110.262C67.3097 110.262 67.1419 110.324 67.0218 110.447C66.9032 110.569 66.844 110.739 66.844 110.957H66.411C66.411 110.644 66.5116 110.39 66.7129 110.197C66.9157 110.003 67.1864 109.906 67.525 109.906C67.8417 109.906 68.0921 109.99 68.2762 110.157C68.4603 110.322 68.5523 110.543 68.5523 110.819C68.5523 111.155 68.3386 111.554 67.9111 112.017L66.9984 113.007H68.7091V113.361Z" fill="#172755"/>
<rect x="80.2656" y="101.955" width="26.3607" height="20.769" fill="white"/>
<path d="M92.3784 113.361H90.1458V113.049L91.3253 111.739C91.5001 111.541 91.6202 111.38 91.6857 111.257C91.7528 111.132 91.7864 111.003 91.7864 110.871C91.7864 110.693 91.7325 110.547 91.6249 110.433C91.5172 110.319 91.3737 110.262 91.1943 110.262C90.979 110.262 90.8112 110.324 90.6911 110.447C90.5725 110.569 90.5133 110.739 90.5133 110.957H90.0803C90.0803 110.644 90.1809 110.39 90.3822 110.197C90.585 110.003 90.8557 109.906 91.1943 109.906C91.511 109.906 91.7614 109.99 91.9455 110.157C92.1296 110.322 92.2216 110.543 92.2216 110.819C92.2216 111.155 92.0079 111.554 91.5804 112.017L90.6677 113.007H92.3784V113.361ZM93.4667 111.446H93.792C93.9963 111.443 94.157 111.389 94.274 111.285C94.3911 111.18 94.4496 111.039 94.4496 110.861C94.4496 110.462 94.2506 110.262 93.8528 110.262C93.6656 110.262 93.5158 110.316 93.4035 110.424C93.2927 110.53 93.2373 110.671 93.2373 110.847H92.8044C92.8044 110.577 92.9027 110.353 93.0992 110.176C93.2974 109.996 93.5486 109.906 93.8528 109.906C94.1742 109.906 94.4262 109.991 94.6087 110.162C94.7912 110.332 94.8825 110.568 94.8825 110.871C94.8825 111.019 94.8341 111.162 94.7374 111.301C94.6422 111.44 94.512 111.544 94.3466 111.612C94.5338 111.672 94.6781 111.77 94.7795 111.907C94.8825 112.045 94.934 112.212 94.934 112.411C94.934 112.716 94.8341 112.959 94.6344 113.138C94.4347 113.318 94.175 113.407 93.8551 113.407C93.5353 113.407 93.2748 113.321 93.0735 113.148C92.8738 112.975 92.7739 112.746 92.7739 112.462H93.2092C93.2092 112.641 93.2677 112.785 93.3847 112.893C93.5018 113 93.6586 113.054 93.8551 113.054C94.0642 113.054 94.2241 112.999 94.3349 112.89C94.4457 112.781 94.501 112.624 94.501 112.42C94.501 112.222 94.4402 112.07 94.3185 111.964C94.1968 111.857 94.0213 111.803 93.792 111.8H93.4667V111.446Z" fill="#172755"/>
<rect x="106.626" y="101.955" width="26.3607" height="20.769" fill="white"/>
<path d="M118.739 113.361H116.507V113.049L117.686 111.739C117.861 111.541 117.981 111.38 118.047 111.257C118.114 111.132 118.147 111.003 118.147 110.871C118.147 110.693 118.093 110.547 117.986 110.433C117.878 110.319 117.735 110.262 117.555 110.262C117.34 110.262 117.172 110.324 117.052 110.447C116.933 110.569 116.874 110.739 116.874 110.957H116.441C116.441 110.644 116.542 110.39 116.743 110.197C116.946 110.003 117.217 109.906 117.555 109.906C117.872 109.906 118.122 109.99 118.306 110.157C118.49 110.322 118.582 110.543 118.582 110.819C118.582 111.155 118.369 111.554 117.941 112.017L117.029 113.007H118.739V113.361ZM121.026 112.216H121.498V112.57H121.026V113.361H120.59V112.57H119.039V112.315L120.565 109.953H121.026V112.216ZM119.53 112.216H120.59V110.545L120.539 110.639L119.53 112.216Z" fill="#172755"/>
<rect x="132.987" y="101.955" width="26.3607" height="20.769" fill="white"/>
<path d="M145.1 113.361H142.867V113.049L144.047 111.739C144.221 111.541 144.342 111.38 144.407 111.257C144.474 111.132 144.508 111.003 144.508 110.871C144.508 110.693 144.454 110.547 144.346 110.433C144.239 110.319 144.095 110.262 143.916 110.262C143.7 110.262 143.533 110.324 143.413 110.447C143.294 110.569 143.235 110.739 143.235 110.957H142.802C142.802 110.644 142.902 110.39 143.104 110.197C143.306 110.003 143.577 109.906 143.916 109.906C144.232 109.906 144.483 109.99 144.667 110.157C144.851 110.322 144.943 110.543 144.943 110.819C144.943 111.155 144.729 111.554 144.302 112.017L143.389 113.007H145.1V113.361ZM145.757 111.652L145.931 109.953H147.676V110.353H146.298L146.195 111.283C146.362 111.184 146.552 111.135 146.764 111.135C147.074 111.135 147.321 111.238 147.503 111.444C147.686 111.648 147.777 111.925 147.777 112.275C147.777 112.626 147.682 112.903 147.492 113.106C147.303 113.307 147.038 113.407 146.698 113.407C146.397 113.407 146.151 113.324 145.961 113.157C145.771 112.99 145.662 112.759 145.636 112.464H146.045C146.072 112.659 146.141 112.807 146.254 112.907C146.366 113.005 146.514 113.054 146.698 113.054C146.9 113.054 147.057 112.985 147.171 112.848C147.286 112.711 147.344 112.521 147.344 112.279C147.344 112.052 147.282 111.869 147.157 111.732C147.034 111.593 146.869 111.524 146.663 111.524C146.474 111.524 146.326 111.565 146.219 111.648L146.104 111.741L145.757 111.652Z" fill="#172755"/>
<rect x="27.5444" y="122.724" width="26.3607" height="20.769" fill="white"/>
<path d="M39.6572 134.13H37.4246V133.818L38.6041 132.508C38.7789 132.31 38.899 132.149 38.9645 132.026C39.0316 131.901 39.0652 131.772 39.0652 131.64C39.0652 131.462 39.0113 131.316 38.9037 131.202C38.796 131.088 38.6525 131.031 38.4731 131.031C38.2578 131.031 38.0901 131.093 37.9699 131.216C37.8513 131.338 37.7921 131.508 37.7921 131.726H37.3591C37.3591 131.413 37.4597 131.159 37.661 130.966C37.8638 130.772 38.1345 130.675 38.4731 130.675C38.7898 130.675 39.0402 130.759 39.2243 130.926C39.4084 131.091 39.5004 131.312 39.5004 131.588C39.5004 131.924 39.2867 132.323 38.8592 132.786L37.9465 133.776H39.6572V134.13ZM42.1824 131.612C42.1824 131.782 42.1371 131.933 42.0466 132.066C41.9577 132.198 41.8368 132.302 41.6839 132.377C41.8618 132.453 42.0022 132.565 42.1052 132.711C42.2097 132.858 42.262 133.024 42.262 133.21C42.262 133.505 42.1621 133.74 41.9624 133.914C41.7643 134.089 41.5029 134.176 41.1784 134.176C40.8508 134.176 40.5879 134.089 40.3897 133.914C40.1932 133.738 40.0949 133.503 40.0949 133.21C40.0949 133.026 40.1448 132.86 40.2446 132.711C40.3461 132.563 40.4857 132.451 40.6636 132.374C40.5122 132.3 40.3929 132.196 40.3055 132.063C40.2181 131.931 40.1744 131.78 40.1744 131.612C40.1744 131.324 40.2665 131.097 40.4506 130.928C40.6347 130.76 40.8773 130.675 41.1784 130.675C41.478 130.675 41.7198 130.76 41.9039 130.928C42.0896 131.097 42.1824 131.324 42.1824 131.612ZM41.829 133.201C41.829 133.01 41.7682 132.855 41.6465 132.735C41.5263 132.615 41.3688 132.555 41.1737 132.555C40.9787 132.555 40.8219 132.614 40.7033 132.733C40.5863 132.851 40.5278 133.007 40.5278 133.201C40.5278 133.394 40.5848 133.546 40.6987 133.657C40.8141 133.768 40.974 133.823 41.1784 133.823C41.3812 133.823 41.5404 133.768 41.6558 133.657C41.7713 133.545 41.829 133.392 41.829 133.201ZM41.1784 131.031C41.0084 131.031 40.8703 131.084 40.7642 131.19C40.6597 131.295 40.6074 131.438 40.6074 131.619C40.6074 131.792 40.6589 131.932 40.7618 132.04C40.8664 132.146 41.0052 132.199 41.1784 132.199C41.3516 132.199 41.4897 132.146 41.5926 132.04C41.6972 131.932 41.7494 131.792 41.7494 131.619C41.7494 131.445 41.6956 131.304 41.588 131.195C41.4803 131.086 41.3438 131.031 41.1784 131.031Z" fill="#172755"/>
<rect x="53.905" y="122.724" width="26.3607" height="20.769" fill="white"/>
<path d="M66.0178 134.13H63.7852V133.818L64.9647 132.508C65.1395 132.31 65.2596 132.149 65.3251 132.026C65.3922 131.901 65.4258 131.772 65.4258 131.64C65.4258 131.462 65.3719 131.316 65.2643 131.202C65.1566 131.088 65.0131 131.031 64.8337 131.031C64.6184 131.031 64.4506 131.093 64.3305 131.216C64.2119 131.338 64.1527 131.508 64.1527 131.726H63.7197C63.7197 131.413 63.8203 131.159 64.0216 130.966C64.2244 130.772 64.4951 130.675 64.8337 130.675C65.1504 130.675 65.4008 130.759 65.5849 130.926C65.769 131.091 65.861 131.312 65.861 131.588C65.861 131.924 65.6473 132.323 65.2198 132.786L64.3071 133.776H66.0178V134.13ZM68.1358 132.632C68.0453 132.74 67.9369 132.826 67.8105 132.892C67.6857 132.957 67.5484 132.99 67.3986 132.99C67.202 132.99 67.0304 132.942 66.8837 132.845C66.7386 132.748 66.6263 132.612 66.5467 132.438C66.4672 132.261 66.4274 132.067 66.4274 131.855C66.4274 131.627 66.4703 131.422 66.5561 131.239C66.6435 131.057 66.7667 130.917 66.9259 130.821C67.085 130.724 67.2707 130.675 67.4828 130.675C67.8198 130.675 68.0851 130.802 68.2785 131.055C68.4735 131.306 68.5711 131.649 68.5711 132.084V132.211C68.5711 132.874 68.44 133.358 68.1779 133.664C67.9158 133.968 67.5203 134.124 66.9914 134.132H66.9071V133.767H66.9984C67.3557 133.761 67.6303 133.668 67.8222 133.488C68.0141 133.307 68.1186 133.022 68.1358 132.632ZM67.4688 132.632C67.6139 132.632 67.7473 132.587 67.869 132.498C67.9922 132.41 68.0819 132.3 68.1381 132.169V131.995C68.1381 131.711 68.0765 131.48 67.9532 131.303C67.83 131.125 67.674 131.036 67.4852 131.036C67.2948 131.036 67.1419 131.109 67.0265 131.256C66.911 131.401 66.8533 131.593 66.8533 131.832C66.8533 132.064 66.9087 132.256 67.0195 132.407C67.1318 132.557 67.2816 132.632 67.4688 132.632Z" fill="#172755"/>
<rect x="80.2656" y="122.724" width="26.3607" height="20.769" fill="white"/>
<path d="M90.7754 132.215H91.1007C91.305 132.212 91.4657 132.158 91.5827 132.054C91.6998 131.949 91.7583 131.808 91.7583 131.63C91.7583 131.231 91.5593 131.031 91.1615 131.031C90.9743 131.031 90.8245 131.085 90.7122 131.193C90.6014 131.299 90.546 131.44 90.546 131.616H90.1131C90.1131 131.346 90.2114 131.122 90.4079 130.945C90.6061 130.765 90.8573 130.675 91.1615 130.675C91.4829 130.675 91.7349 130.76 91.9174 130.931C92.0999 131.101 92.1912 131.337 92.1912 131.64C92.1912 131.788 92.1429 131.931 92.0461 132.07C91.9509 132.209 91.8207 132.313 91.6553 132.381C91.8425 132.441 91.9868 132.539 92.0882 132.676C92.1912 132.814 92.2427 132.981 92.2427 133.179C92.2427 133.485 92.1429 133.728 91.9431 133.907C91.7434 134.087 91.4837 134.176 91.1638 134.176C90.844 134.176 90.5835 134.09 90.3822 133.917C90.1825 133.743 90.0826 133.515 90.0826 133.231H90.5179C90.5179 133.41 90.5764 133.554 90.6935 133.662C90.8105 133.769 90.9673 133.823 91.1638 133.823C91.3729 133.823 91.5328 133.768 91.6436 133.659C91.7544 133.55 91.8098 133.393 91.8098 133.189C91.8098 132.991 91.7489 132.839 91.6272 132.733C91.5055 132.626 91.33 132.572 91.1007 132.569H90.7754V132.215ZM94.9738 132.676C94.9738 133.183 94.8872 133.56 94.714 133.807C94.5408 134.053 94.2701 134.176 93.9019 134.176C93.5384 134.176 93.2693 134.056 93.0946 133.816C92.9198 133.574 92.8293 133.214 92.8231 132.735V132.157C92.8231 131.656 92.9097 131.284 93.0829 131.04C93.256 130.797 93.5275 130.675 93.8973 130.675C94.2639 130.675 94.5338 130.793 94.707 131.029C94.8802 131.263 94.9691 131.625 94.9738 132.115V132.676ZM94.5408 132.084C94.5408 131.718 94.4893 131.451 94.3864 131.284C94.2834 131.115 94.1204 131.031 93.8973 131.031C93.6757 131.031 93.5142 131.115 93.4128 131.282C93.3114 131.448 93.2592 131.705 93.256 132.051V132.744C93.256 133.112 93.3091 133.385 93.4152 133.561C93.5228 133.736 93.6851 133.823 93.9019 133.823C94.1157 133.823 94.274 133.74 94.377 133.575C94.4815 133.41 94.5362 133.149 94.5408 132.793V132.084Z" fill="#172755"/>
<rect x="106.626" y="122.724" width="26.3607" height="20.769" fill="white"/>
<path d="M117.136 132.215H117.461C117.666 132.212 117.827 132.158 117.944 132.054C118.061 131.949 118.119 131.808 118.119 131.63C118.119 131.231 117.92 131.031 117.522 131.031C117.335 131.031 117.185 131.085 117.073 131.193C116.962 131.299 116.907 131.44 116.907 131.616H116.474C116.474 131.346 116.572 131.122 116.769 130.945C116.967 130.765 117.218 130.675 117.522 130.675C117.844 130.675 118.096 130.76 118.278 130.931C118.461 131.101 118.552 131.337 118.552 131.64C118.552 131.788 118.504 131.931 118.407 132.07C118.312 132.209 118.182 132.313 118.016 132.381C118.203 132.441 118.348 132.539 118.449 132.676C118.552 132.814 118.604 132.981 118.604 133.179C118.604 133.485 118.504 133.728 118.304 133.907C118.104 134.087 117.845 134.176 117.525 134.176C117.205 134.176 116.944 134.09 116.743 133.917C116.543 133.743 116.443 133.515 116.443 133.231H116.879C116.879 133.41 116.937 133.554 117.054 133.662C117.171 133.769 117.328 133.823 117.525 133.823C117.734 133.823 117.894 133.768 118.004 133.659C118.115 133.55 118.171 133.393 118.171 133.189C118.171 132.991 118.11 132.839 117.988 132.733C117.866 132.626 117.691 132.572 117.461 132.569H117.136V132.215ZM120.621 134.13H120.186V131.244L119.313 131.565V131.172L120.553 130.706H120.621V134.13Z" fill="#172755"/>
<rect x="132.987" y="122.724" width="26.3607" height="20.769" fill="white"/>
<path d="M35.4537 23.2677L36.5676 26.0479L37.6816 23.2677H38.2643V26.6751H37.815V25.3482L37.8571 23.9159L36.7385 26.6751H36.3944L35.2781 23.923L35.3226 25.3482V26.6751H34.8733V23.2677H35.4537ZM41.6787 25.0814C41.6787 25.4153 41.6226 25.707 41.5102 25.9567C41.3979 26.2047 41.2388 26.3943 41.0328 26.5253C40.8269 26.6564 40.5866 26.7219 40.312 26.7219C40.0437 26.7219 39.8057 26.6564 39.5982 26.5253C39.3907 26.3927 39.2293 26.2047 39.1138 25.9613C38.9999 25.7164 38.9414 25.4332 38.9383 25.1118V24.8661C38.9383 24.5385 38.9952 24.249 39.1091 23.9979C39.223 23.7467 39.3837 23.5548 39.5912 23.4222C39.8003 23.288 40.039 23.2209 40.3073 23.2209C40.5804 23.2209 40.8206 23.2872 41.0281 23.4198C41.2372 23.5509 41.3979 23.742 41.5102 23.9932C41.6226 24.2428 41.6787 24.5338 41.6787 24.8661V25.0814ZM41.2317 24.8614C41.2317 24.4573 41.1506 24.1476 40.9884 23.9323C40.8261 23.7155 40.5991 23.607 40.3073 23.607C40.0234 23.607 39.7995 23.7155 39.6357 23.9323C39.4734 24.1476 39.39 24.4472 39.3853 24.831V25.0814C39.3853 25.473 39.4672 25.7811 39.631 26.0058C39.7964 26.2289 40.0234 26.3405 40.312 26.3405C40.6022 26.3405 40.8269 26.2351 40.986 26.0245C41.1452 25.8123 41.2271 25.5089 41.2317 25.1142V24.8614ZM44.9715 26.6751H44.5198L42.8044 24.0493V26.6751H42.3527V23.2677H42.8044L44.5245 25.9052V23.2677H44.9715V26.6751Z" fill="#8794BA"/>
<path d="M64.6905 23.6375H63.5952V26.6751H63.1482V23.6375H62.0553V23.2677H64.6905V23.6375ZM67.5947 23.2677V25.5846C67.5932 25.9059 67.4917 26.1688 67.2905 26.3732C67.0908 26.5776 66.8193 26.6923 66.4761 26.7172L66.3567 26.7219C65.9838 26.7219 65.6866 26.6213 65.4651 26.42C65.2435 26.2188 65.1312 25.9418 65.1281 25.5892V23.2677H65.5727V25.5752C65.5727 25.8217 65.6406 26.0136 65.7763 26.1509C65.9121 26.2866 66.1055 26.3545 66.3567 26.3545C66.611 26.3545 66.8053 26.2866 66.9394 26.1509C67.0752 26.0152 67.143 25.824 67.143 25.5775V23.2677H67.5947ZM70.2298 25.1001H68.7531V26.3077H70.4685V26.6751H68.3038V23.2677H70.4451V23.6375H68.7531V24.7327H70.2298V25.1001Z" fill="#8794BA"/>
<path d="M88.7157 25.6009L88.7812 26.0503L88.8772 25.6454L89.5512 23.2677H89.9303L90.5879 25.6454L90.6815 26.0573L90.7541 25.5986L91.283 23.2677H91.7346L90.9085 26.6751H90.499L89.7969 24.1921L89.7431 23.9323L89.6892 24.1921L88.9614 26.6751H88.5519L87.7281 23.2677H88.1774L88.7157 25.6009ZM94.1615 25.1001H92.6848V26.3077H94.4002V26.6751H92.2354V23.2677H94.3768V23.6375H92.6848V24.7327H94.1615V25.1001ZM94.9595 26.6751V23.2677H95.9213C96.2178 23.2677 96.4799 23.3332 96.7077 23.4643C96.9355 23.5953 97.111 23.7818 97.2342 24.0236C97.359 24.2654 97.4222 24.5431 97.4238 24.8567V25.0744C97.4238 25.3958 97.3614 25.6774 97.2366 25.9192C97.1133 26.161 96.9362 26.3467 96.7053 26.4762C96.476 26.6057 96.2084 26.672 95.9026 26.6751H94.9595ZM95.4088 23.6375V26.3077H95.8816C96.2279 26.3077 96.4971 26.2 96.689 25.9847C96.8824 25.7694 96.9791 25.4629 96.9791 25.065V24.8661C96.9791 24.4792 96.8879 24.1788 96.7053 23.9651C96.5244 23.7498 96.2669 23.6406 95.933 23.6375H95.4088Z" fill="#8794BA"/>
<path d="M117.065 23.6375H115.97V26.6751H115.523V23.6375H114.43V23.2677H117.065V23.6375ZM120.19 26.6751H119.738V25.1001H118.02V26.6751H117.571V23.2677H118.02V24.7327H119.738V23.2677H120.19V26.6751ZM123.386 23.2677V25.5846C123.385 25.9059 123.283 26.1688 123.082 26.3732C122.882 26.5776 122.611 26.6923 122.268 26.7172L122.148 26.7219C121.775 26.7219 121.478 26.6213 121.257 26.42C121.035 26.2188 120.923 25.9418 120.92 25.5892V23.2677H121.364V25.5752C121.364 25.8217 121.432 26.0136 121.568 26.1509C121.704 26.2866 121.897 26.3545 122.148 26.3545C122.403 26.3545 122.597 26.2866 122.731 26.1509C122.867 26.0152 122.935 25.824 122.935 25.5775V23.2677H123.386Z" fill="#8794BA"/>
<path d="M144.189 25.1703H142.759V26.6751H142.31V23.2677H144.421V23.6375H142.759V24.8029H144.189V25.1703ZM146.209 25.2967H145.408V26.6751H144.957V23.2677H146.085C146.468 23.2677 146.763 23.3551 146.969 23.5298C147.177 23.7045 147.281 23.9589 147.281 24.2927C147.281 24.5049 147.223 24.6898 147.107 24.8474C146.993 25.0049 146.834 25.1227 146.63 25.2007L147.43 26.647V26.6751H146.948L146.209 25.2967ZM145.408 24.9293H146.099C146.322 24.9293 146.499 24.8716 146.63 24.7561C146.763 24.6406 146.829 24.4862 146.829 24.2927C146.829 24.0821 146.766 23.9206 146.639 23.8083C146.515 23.696 146.334 23.639 146.096 23.6375H145.408V24.9293ZM148.395 26.6751H147.945V23.2677H148.395V26.6751Z" fill="#8794BA"/>
</svg>
